<?xml version="1.0" encoding="UTF-8" standalone="no"?>
<svg
   xmlns:dc="http://purl.org/dc/elements/1.1/"
   xmlns:cc="http://creativecommons.org/ns#"
   xmlns:rdf="http://www.w3.org/1999/02/22-rdf-syntax-ns#"
   xmlns:svg="http://www.w3.org/2000/svg"
   xmlns="http://www.w3.org/2000/svg"
   xmlns:sodipodi="http://sodipodi.sourceforge.net/DTD/sodipodi-0.dtd"
   xmlns:inkscape="http://www.inkscape.org/namespaces/inkscape"
   id="Layer_1"
   data-name="Layer 1"
   viewBox="0 0 2044 1169"
   version="1.1"
   sodipodi:docname="drawkit-daily-life-vector-illustration-12-modified.svg"
   inkscape:version="1.0.2 (e86c870879, 2021-01-15, custom)">
  <metadata
     id="metadata417">
    <rdf:RDF>
      <cc:Work
         rdf:about="">
        <dc:format>image/svg+xml</dc:format>
        <dc:type
           rdf:resource="http://purl.org/dc/dcmitype/StillImage" />
        <dc:title></dc:title>
      </cc:Work>
    </rdf:RDF>
  </metadata>
  <sodipodi:namedview
     pagecolor="#ffffff"
     bordercolor="#666666"
     borderopacity="1"
     objecttolerance="10"
     gridtolerance="10"
     guidetolerance="10"
     inkscape:pageopacity="0"
     inkscape:pageshadow="2"
     inkscape:window-width="1366"
     inkscape:window-height="713"
     id="namedview415"
     showgrid="false"
     inkscape:zoom="0.23053892"
     inkscape:cx="277.88419"
     inkscape:cy="416.8546"
     inkscape:window-x="-8"
     inkscape:window-y="-8"
     inkscape:window-maximized="1"
     inkscape:current-layer="Layer_1" />
  <defs
     id="defs12">
    <style
       id="style10">.cls-1{fill:#d6eaf2;}.cls-10,.cls-12,.cls-18,.cls-2,.cls-20,.cls-23,.cls-24,.cls-25,.cls-4,.cls-5,.cls-6{fill:none;}.cls-2{stroke:#f1b104;stroke-miterlimit:10;}.cls-10,.cls-12,.cls-18,.cls-2,.cls-20,.cls-23,.cls-24,.cls-4,.cls-5,.cls-6,.cls-7{stroke-width:3px;}.cls-3{fill:#99c9e5;}.cls-4{stroke:#fff;}.cls-10,.cls-12,.cls-18,.cls-20,.cls-23,.cls-24,.cls-25,.cls-4,.cls-5,.cls-6,.cls-7{stroke-linecap:round;stroke-linejoin:round;}.cls-5{stroke:#99c9e5;}.cls-6,.cls-7{stroke:#cde8ec;}.cls-15,.cls-7{fill:#fff;}.cls-8{fill:#ffba00;}.cls-9{fill:#f9c543;}.cls-10{stroke:#d3a000;}.cls-11{fill:#aea61f;}.cls-12{stroke:#9f9300;}.cls-13{fill:#b57e6f;}.cls-14{fill:#3a193f;}.cls-16{fill:#84abd6;}.cls-17{fill:#a1cbe2;}.cls-18{stroke:#32323c;}.cls-19{fill:#fff4de;}.cls-20{stroke:#40465c;}.cls-21{fill:#f1b104;}.cls-22{fill:#32323c;}.cls-23{stroke:#174b64;}.cls-24{stroke:#3a193f;}.cls-25{stroke:#9e2923;stroke-width:2px;}</style>
  </defs>
  <path
     id="HILL"
     class="cls-1"
     d="M204.1,846.22C301.74,538.49,743.4,401.75,876.36,478.7s120,193.06,285.64,180.66,208-204.64,392.35-151.65,249.8,335.51,249.8,335.51" />
  <g
     id="TREE">
    <line
       class="cls-2"
       x1="402.2"
       y1="153.03"
       x2="402.2"
       y2="839.51"
       id="line15" />
    <path
       class="cls-2"
       d="M557.73,230.5v4a44.65,44.65,0,0,1-44.65,44.65H485.75a22,22,0,0,0-22,22"
       id="path17" />
    <path
       class="cls-2"
       d="M513.08,279.18h87.8A41.64,41.64,0,0,0,634.59,262"
       id="path19" />
    <path
       class="cls-2"
       d="M362.29,153v94.13A95.92,95.92,0,0,0,390.38,315h0a40.35,40.35,0,0,1,11.82,28.54"
       id="path21" />
    <path
       class="cls-2"
       d="M463.93,230.5v62.33a118.37,118.37,0,0,1-37.87,86.79l-1.37,1.27a70.28,70.28,0,0,0-22.49,51.53"
       id="path23" />
    <path
       class="cls-2"
       d="M308.72,196.52V369.93a185.91,185.91,0,0,0,61.06,137.75h0a98.69,98.69,0,0,1,32.42,73.14"
       id="path25" />
    <path
       class="cls-2"
       d="M216.41,152.45c0,42.68,27.17,69.15,60.69,69.15h31.62"
       id="path27" />
    <path
       class="cls-2"
       d="M280.82,334.38v44.56a32,32,0,0,0,32,32h.47"
       id="path29" />
    <path
       class="cls-2"
       d="M286.19,396.69H242.05a66.89,66.89,0,0,1-66.89-66.89"
       id="path31" />
    <path
       class="cls-2"
       d="M495.44,486.93v21.83a122.12,122.12,0,0,1-35.77,86.35L424.74,630a77,77,0,0,0-22.54,54.41"
       id="path33" />
    <path
       class="cls-2"
       d="M531.31,479.86a34.37,34.37,0,0,1-34.37,34.37h-1.63"
       id="path35" />
    <path
       class="cls-3"
       d="M512,480.31H587.7s15.65-11.46,2.37-24.53c-8.61-8.47-22.55-3.13-22.55-3.13s14.83-48.67-31.46-53.72S480.85,432.47,488,449.09s-91-22.78-102.69,24c-.89,3.56,31.16,8,61.73,3.26,0,0,9.79,30.57,44.26,24.78C515.49,497.11,512,480.31,512,480.31Z"
       id="path37" />
    <path
       class="cls-3"
       d="M186.76,331.91H99s-1.78-44.42,122.87-28.4c0,0,3.52-44.06,70.29-41.83s65.93,71.51,63.26,73.14-61,0-61,0-6.8,33.82-61.71,33.82C196.83,368.64,186.76,331.91,186.76,331.91Z"
       id="path39" />
    <path
       class="cls-3"
       d="M595.41,231H444.07c-13.63,0-24.13-12.49-21.27-25.82,1.56-7.29,6.88-14,19.92-16.92,28-6.23,44.07,3.49,44.07,3.49s-25.39-68.89,60.1-68.93c79.24,0,70.64,52.12,69.45,60.54C614.41,197,671,169.07,703,204.68s-24.82,69.75-57.77,61.59S595.41,231,595.41,231Z"
       id="path41" />
    <path
       class="cls-3"
       d="M356.59,154H478.18s11.25-20-12.12-29.75-74.49,1.18-74.49,1.18S395,52.12,326.15,57.28c-62.48,4.68-58.69,55.44-58.69,55.44S205.6,97,154.67,135.66c-8.73,6.64-4.67,16.55,6.3,16.55,14.42,0,66.27.55,66.27.55s14.65,51,80.15,44.58C353.44,192.84,356.59,154,356.59,154Z"
       id="path43" />
    <circle
       class="cls-4"
       cx="507.32"
       cy="152.81"
       r="5.5"
       id="circle45" />
    <circle
       class="cls-5"
       cx="252.33"
       cy="95.65"
       r="5.33"
       id="circle47" />
    <circle
       class="cls-5"
       cx="155.38"
       cy="346.19"
       r="7.73"
       id="circle49" />
    <circle
       class="cls-5"
       cx="470.05"
       cy="433.38"
       r="5.5"
       id="circle51" />
    <circle
       class="cls-4"
       cx="301.13"
       cy="90.32"
       r="10.66"
       id="circle53" />
    <circle
       class="cls-4"
       cx="627.41"
       cy="207.14"
       r="10.61"
       id="circle55" />
    <circle
       class="cls-4"
       cx="333.23"
       cy="312.46"
       r="8"
       id="circle57" />
    <circle
       class="cls-4"
       cx="470.05"
       cy="482.17"
       r="8"
       id="circle59" />
    <circle
       class="cls-4"
       cx="328.9"
       cy="76.6"
       r="3.73"
       id="circle61" />
    <circle
       class="cls-4"
       cx="604.97"
       cy="179.89"
       r="3.85"
       id="circle63" />
    <circle
       class="cls-4"
       cx="308.72"
       cy="315.12"
       r="3.85"
       id="circle65" />
    <circle
       class="cls-4"
       cx="137.35"
       cy="320.46"
       r="3.85"
       id="circle67" />
  </g>
  <g
     id="WAY">
    <path
       id="WAY-2"
       data-name="WAY"
       class="cls-1"
       d="M658,845.38c34,0,339.67,9.15,284.48,86s-753.52,65-753.52,65v62.23H1884l-21-28.74S1362.38,998,1443.51,911.26c53.07-56.73-297.22-67-388.51-67S658,845.38,658,845.38Z" />
    <ellipse
       class="cls-6"
       cx="707.9"
       cy="883.59"
       rx="48.83"
       ry="8.26"
       id="ellipse71" />
    <ellipse
       class="cls-6"
       cx="792.29"
       cy="907.92"
       rx="18.58"
       ry="4.76"
       id="ellipse73" />
    <line
       class="cls-7"
       x1="1514.64"
       y1="858.37"
       x2="1871.83"
       y2="858.37"
       id="line75" />
  </g>
  <g
     id="CLOUDS_SUN"
     data-name="CLOUDS &amp; SUN">
    <circle
       class="cls-8"
       cx="1500.35"
       cy="171.76"
       r="76.1"
       id="circle78" />
    <path
       class="cls-7"
       d="M1604.08,405.13c-50.8-10.67-54.59,22.83-54.59,22.83h373.12c4.59-51.17-60.15-40.87-60.15-40.87s7.54-36.69-49.68-49.19-87.48,22-82.72,50.3c0,0-26.83-36.28-71.6-22.13-34.42,10.88.9,34.2-6.34,42.46C1644.67,417,1629.88,410.55,1604.08,405.13Z"
       id="path80" />
    <path
       class="cls-7"
       d="M1031.34,365.23H730.12s3.49-30.2,48.21-20.16c60.1,13.49,86.24,4.36,83-15-4.2-25,22.51-55.44,73-44.4s43.87,43.43,43.87,43.43S1035.39,320,1031.34,365.23Z"
       id="path82" />
    <line
       class="cls-7"
       x1="782.31"
       y1="383.17"
       x2="930.74"
       y2="383.17"
       id="line84" />
    <path
       class="cls-7"
       d="M1224.93,195.15h277.36s-3.46-30-47.86-20c-59.68,13.39-63.91,0-60.68-19.2,4.17-24.8-22.36-59.39-72.52-48.44S1282,176.7,1282,176.7,1233,165.17,1224.93,195.15Z"
       id="path86" />
    <line
       class="cls-7"
       x1="1358.05"
       y1="209.57"
       x2="1506.48"
       y2="209.57"
       id="line88" />
  </g>
  <g
     id="PLANTS"
     transform="translate(554.66,-0.02)">
    <path
       class="cls-9"
       d="m 2021.54,843.24 c 0,0 -1,-88.3 -94.25,-84.13 0,0 -30.29,-194.72 -202.71,-214.5 -209.72,-24.06 -250.76,208 -250.76,208 0,0 -198.82,-59.39 -224.33,90.63 z"
       id="path91" />
    <path
       class="cls-10"
       d="m 2021.54,843.24 c 0,0 -1,-88.3 -94.25,-84.13 0,0 -30.29,-194.72 -202.71,-214.5 -209.72,-24.06 -250.76,208 -250.76,208 0,0 -198.82,-59.39 -224.33,90.63 z"
       id="path93" />
    <path
       class="cls-10"
       d="m 1706.83,543.16 c 0,0 -66.89,178 -10.1,300.08"
       id="path95" />
    <path
       class="cls-10"
       d="m 1750,549 c 0,0 -18.1,137.95 -75,206.29"
       id="path97" />
    <path
       class="cls-10"
       d="m 1662.19,545.19 c 0,0 -17.49,75.07 15.69,120.22"
       id="path99" />
    <path
       class="cls-10"
       d="m 1801.92,568.7 c 0,0 -31.79,83.81 -81,99.3"
       id="path101" />
    <path
       class="cls-10"
       d="m 1873,632.11 c 0,0 -151.31,70 -169.36,211.13"
       id="path103" />
    <path
       class="cls-10"
       d="m 1827.26,585.15 c 0,0 -23.91,30.82 -13.8,84.48"
       id="path105" />
    <path
       class="cls-10"
       d="m 1732.81,758.76 c 35,-52.45 152.65,-38 165,-86.09"
       id="path107" />
    <path
       class="cls-10"
       d="m 1918.23,723.07 c 0,0 -35.27,12.86 -84.6,-11.5"
       id="path109" />
    <path
       class="cls-10"
       d="m 1927.29,759.11 c -15.08,0.81 -76.11,23.1 -83,84.13"
       id="path111" />
    <path
       class="cls-10"
       d="m 1961.39,762.33 c 0,0 -33.26,18.82 -28,80.91"
       id="path113" />
    <path
       class="cls-10"
       d="m 1985,772.77 c 0,0 -8.12,48.2 -52.14,59.34"
       id="path115" />
    <path
       class="cls-10"
       d="m 1918.23,760.84 c 0,0 1,35.24 17.18,44.27"
       id="path117" />
    <path
       class="cls-10"
       d="m 1862.66,798 c 0,0 48.79,-7.28 62.44,45.26"
       id="path119" />
    <path
       class="cls-10"
       d="m 1853.29,812.72 c 0,0 26.33,6.81 44.48,-7.61"
       id="path121" />
    <path
       class="cls-10"
       d="m 2005.34,793 c 0,0 -36.34,9.37 -34.75,50.23 0,0 3.72,-24.41 22.29,-24.94 18.57,-0.53 18,24.94 18,24.94"
       id="path123" />
    <path
       class="cls-10"
       d="m 1673.87,721.7 c 0,-52.07 -98.15,-89.59 -88.32,-147.93"
       id="path125" />
    <path
       class="cls-10"
       d="m 1521.7,637.91 c 0,0 28.3,26.19 90.3,-2.33"
       id="path127" />
    <path
       class="cls-10"
       d="m 1616.91,557.44 c 0,0 30.75,4.74 44.48,69.95"
       id="path129" />
    <path
       class="cls-10"
       d="m 1501.61,672.67 c 0,0 76.23,35.23 60.31,170.57"
       id="path131" />
    <path
       class="cls-10"
       d="m 1577.31,647.73 c 0,0 24.59,86.16 -15.3,127.57"
       id="path133" />
    <path
       class="cls-10"
       d="m 1491.47,695.22 c 0,0 7.89,22.4 46.6,12.5"
       id="path135" />
    <path
       class="cls-10"
       d="m 1590.58,843.24 c 0,0 -9.55,-54.13 36.09,-54.13 45.64,0 47.2,54.13 47.2,54.13"
       id="path137" />
    <path
       class="cls-10"
       d="m 1584.81,711.57 c 15.33,2.17 82.88,21.53 97.4,89.61"
       id="path139" />
    <path
       class="cls-10"
       d="m 1473.82,752.66 c 17.65,6.1 63.16,37.51 69.53,90.58"
       id="path141" />
    <path
       class="cls-10"
       d="m 1478.6,843.24 c 0,0 -16.58,-54.64 -3.25,-97.79"
       id="path143" />
    <path
       class="cls-10"
       d="m 1405.34,741.5 c 0,0 35.57,16.82 23.37,101.74"
       id="path145" />
    <path
       class="cls-10"
       d="m 1448.93,746.9 c 0,0 3.45,42.86 -17.67,55.54"
       id="path147" />
    <path
       class="cls-10"
       d="m 1769.44,843.24 c 0.53,-14.86 15.17,-81.82 128.33,-74.08"
       id="path149" />
    <path
       class="cls-10"
       d="m 1341.13,746.9 c 0,0 28.21,47.84 79.12,11.06"
       id="path151" />
    <path
       class="cls-10"
       d="m 1366.08,843.24 c 0,0 -17.52,-17.51 -48.3,-14.33 -30.78,3.18 -34.5,14.33 -34.5,14.33"
       id="path153" />
    <path
       class="cls-10"
       d="m 1418.3,843.24 c 0,0 -8.17,-38.92 -49.57,-33.52 -41.4,5.4 -42.46,33.52 -42.46,33.52"
       id="path155" />
    <path
       class="cls-9"
       d="m 162.65,1058.58 h 426.72 c 2.12,-74.66 -87,-69.71 -87,-69.71 0,0 -1.44,-95.41 -129.5,-117.47 -53.46,-9.2 -231.45,-0.13 -210.22,187.18 z"
       id="path157" />
    <path
       class="cls-10"
       d="m 162.65,1058.58 h 426.72 c 2.12,-74.66 -87,-69.71 -87,-69.71 0,0 -1.44,-95.41 -129.5,-117.47 -53.46,-9.2 -231.45,-0.13 -210.22,187.18 z"
       id="path159" />
    <path
       class="cls-10"
       d="m 359.76,869.78 c 0,0 -43,87.42 -4.8,188.8"
       id="path161" />
    <path
       class="cls-10"
       d="m 325.23,869.53 c 0,0 -6.92,48.51 15.38,73.93"
       id="path163" />
    <path
       class="cls-10"
       d="m 402.92,878.55 c 0,0 -18.11,71.86 -63.29,108.45"
       id="path165" />
    <path
       class="cls-10"
       d="m 437.55,893.24 c 0,0 -35.38,44.17 -60.31,47.43"
       id="path167" />
    <path
       class="cls-10"
       d="m 262.86,881.58 c 0,0 10.87,87.62 77.75,116.92"
       id="path169" />
    <path
       class="cls-10"
       d="m 179.33,948.45 c 0,0 48.6,-45.9 107.87,0"
       id="path171" />
    <path
       class="cls-10"
       d="m 348.81,1040.09 c 0,-61.36 126.54,-67.42 127.11,-115.22"
       id="path173" />
    <path
       class="cls-10"
       d="m 452.34,902.72 c 0,0 -19.34,17.78 -4.21,56.57"
       id="path175" />
    <path
       class="cls-10"
       d="m 502.33,988.87 c -11,0.71 -68.29,23 -69.35,69.71"
       id="path177" />
    <path
       class="cls-10"
       d="m 521.08,1058.58 c -4.78,-8 -39.53,-81.56 -131.49,-69.71"
       id="path179" />
    <path
       class="cls-10"
       d="m 531.94,991.55 c 0,0 0.46,36.26 -29.61,39.17"
       id="path181" />
    <path
       class="cls-10"
       d="m 425.55,988.87 c 0,0 -10.49,18.81 12,48.77"
       id="path183" />
    <path
       class="cls-10"
       d="m 377.24,1058.58 c 0,0 0,-18.93 17,-18.49 17,0.44 18.14,18.49 18.14,18.49"
       id="path185" />
    <path
       class="cls-10"
       d="m 324.22,1058.58 c 0,0 -17,-62.85 -78.06,-60.08 -61.06,2.77 -66.83,60.08 -66.83,60.08"
       id="path187" />
    <path
       class="cls-10"
       d="m 309.31,1058.58 c 0,0 -8,-28.86 -39.8,-30.09 -31.8,-1.23 -31.85,30.09 -31.85,30.09"
       id="path189" />
    <path
       class="cls-10"
       d="m 249,929.78 c 0,0 -12.92,43.61 15.74,70"
       id="path191" />
    <path
       class="cls-10"
       d="m 226.55,928.32 c 0,0 -8.28,57.41 -63.07,67.56"
       id="path193" />
    <path
       class="cls-10"
       d="m 290.05,874.18 c 0,0 11.69,32.32 -18.82,40.88"
       id="path195" />
    <path
       class="cls-10"
       d="m 578.88,1019.15 c 0,0 -24.36,1.74 -15.34,39.43"
       id="path197" />
    <path
       class="cls-3"
       d="m 287.2,846.44 c 0,0 57.32,-16.27 100.49,-55.9 36.89,-33.87 66.52,-75 113.22,-74.31 46.7,0.69 52.37,48.83 52.37,48.83 0,0 21.93,-40.33 83.5,-24.77 61.57,15.56 25.48,63.86 53.78,65.38 28.3,1.52 111.81,-42.73 111.81,40.77 z"
       id="path199" />
    <path
       class="cls-4"
       d="m 557.61,848.36 c 95.62,-87.52 80.61,-168.73 80.61,-168.73 -103,52.07 -85.94,167.16 -85.94,167.16"
       id="path201" />
    <path
       class="cls-4"
       d="m 563,846.79 c 0,0 14.23,-64.72 -46.27,-84.89 -60.5,-20.17 31.89,84.89 31.89,84.89"
       id="path203" />
    <circle
       class="cls-5"
       cx="703.5"
       cy="777.57001"
       r="7.73"
       id="circle205" />
    <path
       class="cls-2"
       d="m 191.67,622.21 c 0,0 -7.49,131.84 2.47,188.59"
       id="path207" />
    <path
       class="cls-2"
       d="m 213.31,638.92 c 0,0 -1.47,24.74 -23,30.4"
       id="path209" />
    <path
       class="cls-2"
       d="m 152,666.21 c 0,0 10.21,48.79 37,70.79"
       id="path211" />
    <path
       class="cls-2"
       d="m 134.35,672.22 c 0,0 9.31,14.07 23.76,14.82"
       id="path213" />
    <path
       class="cls-2"
       d="m 175.37,637.61 c 0,0 4.47,15.66 14.86,17.85"
       id="path215" />
    <circle
       class="cls-9"
       cx="191.84"
       cy="602.98999"
       r="20.280001"
       id="circle217" />
    <circle
       class="cls-9"
       cx="213.7"
       cy="635.96997"
       r="6.6599998"
       id="circle219" />
    <circle
       class="cls-9"
       cx="174.3"
       cy="635.27002"
       r="5.8800001"
       id="circle221" />
    <circle
       class="cls-9"
       cx="133.28"
       cy="670.98999"
       r="5.3299999"
       id="circle223" />
    <circle
       class="cls-9"
       cx="151.50999"
       cy="654.65002"
       r="12.44"
       id="circle225" />
    <path
       class="cls-11"
       d="m 148.5,846.79 c 0,0 -72.62,-19.95 -57.67,-53.43 8.84,-19.81 63.68,34.32 63.68,34.32 0,0 -50.24,-53 -42.1,-150.35 0,0 60.26,42.79 81.73,112.14 0,0 12,-101.55 54.85,-136.93 0,0 10.26,23.35 -2.83,99.78 0,0 43.16,-48.83 70.76,-61.92 0,0 -17.34,71.12 -41.75,104.38 0,0 28.66,-14.51 41.75,7.78 13.09,22.29 -29.72,42.82 -29.72,42.82 z"
       id="path227" />
    <path
       class="cls-12"
       d="m 114,680.53 c 0,0 47.23,131.59 77.66,164.85"
       id="path229" />
    <path
       class="cls-12"
       d="m 248.45,655.21 c 0,0 -32.62,170.45 -44.35,190.48"
       id="path231" />
    <path
       class="cls-12"
       d="m 313.72,694.13 c 0,0 -66.86,121.45 -101.18,151"
       id="path233" />
    <path
       class="cls-12"
       d="m 314.67,799.27 c 0,0 -43,38.73 -73.82,46.05"
       id="path235" />
    <path
       class="cls-12"
       d="m 91.89,793.36 c 0,0 36.79,42.28 74,51.83"
       id="path237" />
    <line
       class="cls-12"
       x1="148.5"
       y1="845.19"
       x2="287.20001"
       y2="845.19"
       id="line239" />
    <path
       class="cls-11"
       d="m 1915.71,1047.79 c 0,0 72.62,-20 57.67,-53.43 -8.84,-19.81 -63.69,34.32 -63.69,34.32 0,0 50.25,-53 42.11,-150.35 0,0 -60.27,42.79 -81.73,112.14 0,0 -12,-101.55 -54.85,-136.93 0,0 -10.26,23.35 2.83,99.78 0,0 -43.16,-48.83 -70.76,-61.92 0,0 17.34,71.12 41.75,104.38 0,0 -28.66,-14.51 -41.75,7.78 -13.09,22.29 29.72,42.82 29.72,42.82 z"
       id="path241" />
    <path
       class="cls-12"
       d="m 1950.2,881.53 c 0,0 -47.23,131.59 -77.66,164.85"
       id="path243" />
    <path
       class="cls-12"
       d="m 1815.76,856.21 c 0,0 32.61,170.45 44.34,190.48"
       id="path245" />
    <path
       class="cls-12"
       d="m 1750.49,895.13 c 0,0 66.86,121.45 101.18,151"
       id="path247" />
    <path
       class="cls-12"
       d="m 1749.54,1000.27 c 0,0 43,38.73 73.82,46"
       id="path249" />
    <path
       class="cls-12"
       d="m 1972.32,994.36 c 0,0 -36.8,42.28 -74,51.83"
       id="path251" />
    <line
       class="cls-12"
       x1="1915.71"
       y1="1046.1899"
       x2="1777.01"
       y2="1046.1899"
       id="line253" />
    <path
       class="cls-3"
       d="m 1413.67,1058.58 c 0,0 2,-85.12 76.93,-85.45 53.08,-0.24 67.91,24.93 67.91,24.93 0,0 -52,-87 44.08,-106.67 96.08,-19.67 118.29,97.21 161.42,108.8 43.44,11.68 147.09,-32.55 120.4,58.39 z"
       id="path255" />
    <path
       class="cls-4"
       d="m 1657.19,1061.57 c -85.27,-46.66 -74.57,-128.91 -74.57,-128.91 85.59,26.46 78.18,126.81 78.18,126.81"
       id="path257" />
    <path
       class="cls-4"
       d="m 1653,1061.38 c 0,0 -13.71,-48.12 34.53,-70.09 43.52,-19.82 -24.06,67.52 -24.06,67.52"
       id="path259" />
    <circle
       class="cls-5"
       cx="1518.86"
       cy="948.45001"
       r="9.0600004"
       id="circle261" />
    <circle
       class="cls-5"
       cx="1913.29"
       cy="1009.45"
       r="7.73"
       id="circle263" />
    <circle
       class="cls-4"
       cx="1459.8199"
       cy="1009.45"
       r="10.61"
       id="circle265" />
  </g>
  <g
     id="g517">
    <g
       id="BOY"
       transform="translate(502.25,-5.12)">
      <g
         id="LEGS">
        <g
           id="RIGHT_LEG"
           data-name="RIGHT LEG">
          <path
             id="LEG"
             class="cls-13"
             d="m 814.88,940.12 c -0.26,44.26 20.12,103.87 32.9,122.5 8.5,12.39 10.36,-0.7 10.26,-2.65 -1.23,-24.43 5,-71.34 -2.65,-119.85 z" />
          <path
             id="SHADOW"
             class="cls-14"
             d="m 857,952.43 c -13.62,3.08 -29.39,4.53 -41.31,5.21 a 168,168 0 0 1 -0.85,-17.52 h 40.51 q 1,6.18 1.65,12.31 z" />
          <g
             id="SHOES">
            <path
               class="cls-15"
               d="m 884.24,1083.34 h -37 a 26.22,26.22 0 0 1 -0.15,-3.9 h 37.14 a 20.7,20.7 0 0 1 0.01,3.9 z"
               id="path270" />
            <path
               class="cls-16"
               d="m 884.24,1079.44 h -37 c 0,0 0,-0.29 -0.11,-0.79 -0.35,-2.68 -1,-11.45 4.53,-15.12 4.49,-3 14.87,-1.61 23.89,1.07 9.02,2.68 8.69,14.84 8.69,14.84 z"
               id="path272" />
          </g>
        </g>
        <g
           id="LEFT_LEG"
           data-name="LEFT LEG">
          <path
             class="cls-13"
             d="m 736.08,940.12 c 0.71,6.61 21.24,115.89 15.81,120.61 -5.43,4.72 14.63,2.6 15.34,0 0.71,-2.6 25.73,-65.61 14.4,-120.61 z"
             id="path276" />
          <path
             class="cls-14"
             d="m 781.63,940.12 a 138.94,138.94 0 0 1 2.47,18 c -20.24,0.27 -35.34,-1.72 -45.67,-3.91 -1.32,-7.61 -2.22,-12.83 -2.36,-14.13 z"
             id="path278" />
          <g
             id="SHOES-2"
             data-name="SHOES">
            <path
               class="cls-15"
               d="m 773.72,1083.34 h -51.8 a 10.59,10.59 0 0 1 -0.28,-3.9 h 52 c 0.03,1.22 0.08,2.56 0.08,3.9 z"
               id="path280" />
            <path
               class="cls-16"
               d="m 773.25,1079.44 h -51.33 a 7.43,7.43 0 0 1 -0.1,-1.09 c -0.08,-2.59 0.64,-9.11 9.47,-12.19 a 136.5,136.5 0 0 1 20.6,-5.43 c 0,0 5.61,2.72 15.34,0 0,0 5.32,5.43 6.02,18.71 z"
               id="path282" />
          </g>
        </g>
        <g
           id="SHORTS">
          <path
             class="cls-17"
             d="m 727.35,839.19 c -0.19,3 -6.33,92.26 -6.15,103.76 0,0 20.73,10.1 65.87,9 l -0.72,-32.39 c 0,0 7.79,32.37 11.15,32.47 3.36,0.1 47.62,-0.25 72.41,-9.46 0,0 -14,-81.24 -22.47,-101.31 z"
             id="path286" />
          <path
             class="cls-18"
             d="m 786.35,919.59 c -1.06,-4.25 -4.42,-17 -4.42,-17 l -8.32,-1.77"
             id="path288" />
        </g>
      </g>
      <path
         id="T-SHIRT"
         class="cls-19"
         d="m 810.66,648.15 c 3.54,2.84 17.47,11.3 21,15.11 5.57,6 40.12,41.54 40.12,41.54 0,0 -11.84,22.2 -37.07,31.39 0,0 4.39,40.72 18.2,101.5 4.21,18.53 -129.11,5.66 -130.52,0 -1.41,-5.66 5.41,-75.77 11,-102.78 0,0 -36.48,-16.66 -36.48,-31.71 0,0 36.48,-35.83 38.6,-38 2.12,-2.17 16.63,-11.66 26.3,-15.67 9.67,-4.01 48.85,-1.38 48.85,-1.38 z" />
      <g
         id="HANDS">
        <g
           id="RIGHT_HAND"
           data-name="RIGHT HAND">
          <path
             id="HAND"
             class="cls-13"
             d="m 834.71,736.19 a 36.68,36.68 0 0 0 31.52,19.74 c 25.56,1.1 67.31,-32 67.31,-32 0,0 13.27,-0.53 16.46,-3.54 3.19,-3.01 7.78,-9.2 8,-10.8 0.22,-1.6 -1.79,-12.72 -1.79,-12.72 0,0 -3.31,0.48 -3.54,6.38 -0.16,3.89 -6.82,6.17 -9.72,5.11 -2,-0.72 -2,-2.76 1,-4.73 a 4.32,4.32 0 0 0 1.26,-6.39 34.3,34.3 0 0 1 -6.17,3.2 c -2.37,0.77 -6.85,4.35 -7.37,5.08 -1.53,2.19 -3.34,8.08 -3.34,8.08 0,0 -31.9,5.34 -55.15,9 L 865,714.43 c 0,0 -12.91,15.39 -30.29,21.76 z" />
          <path
             id="SHADOW-2"
             data-name="SHADOW"
             class="cls-14"
             d="m 868.35,717.8 c 0,0 -15.26,15.25 -19.2,33.38 a 36.45,36.45 0 0 1 -14.41,-14.93 v -0.06 c 17.38,-6.37 30.29,-21.76 30.29,-21.76 z" />
        </g>
        <g
           id="LEFT_HAND"
           data-name="LEFT HAND">
          <path
             id="ARM"
             class="cls-13"
             d="m 676.27,825.81 c -2.37,1.66 -13.49,9.12 -15.19,12.32 -1.7,3.2 -1.14,11.89 -0.84,12.78 0.3,0.89 2.11,5.64 2.11,5.64 a 3.77,3.77 0 0 0 2.23,-4.88 c -1.38,-4.33 2.39,-9 4.84,-10.9 1,-0.77 3.93,-1.12 4.75,0.43 0.82,1.55 -3,4.67 -3.44,6.06 a 4.29,4.29 0 0 0 1,3.91 l 6.88,-6 c 1.11,-1 5.91,-9.83 6.63,-16.07 0.72,-6.24 -3.49,-7.1 -8.97,-3.29 z" />
          <path
             id="HAND-2"
             data-name="HAND"
             class="cls-13"
             d="m 707.33,719 c 0,0 -12.56,20.64 -16.33,36 -3.77,15.36 -17.23,71.43 -17.47,72.84 -0.24,1.41 8.5,4 11.09,2.13 2.59,-1.87 33.69,-58.41 36.57,-63.73 4.87,-9 12.19,-31.26 12.19,-31.26 0,0 -18.9,-9.79 -26.05,-15.98 z" />
          <path
             id="SHADOW-3"
             data-name="SHADOW"
             class="cls-14"
             d="m 733.38,734.91 -0.09,0.25 -4.18,12 -0.06,0.16 c 0,0 -7.14,-16.18 -25.6,-21.58 2.26,-4.13 3.88,-6.8 3.88,-6.8 7.15,6.25 26.05,15.97 26.05,15.97 z" />
        </g>
      </g>
      <g
         id="HEAD">
        <g
           id="NECK">
          <path
             class="cls-13"
             d="m 802.87,627.09 c 0,0 -1.41,10.21 7.79,21.06 0,0 -27.61,15.35 -48.86,1.42 0,0 10.63,-6.14 9.68,-22 z"
             id="path301" />
          <path
             class="cls-14"
             d="m 803.13,632.57 c -6.38,6.7 -17.68,14 -34.76,9.81 a 26.31,26.31 0 0 0 3.11,-14.76 l 31.39,-0.54 a 20.42,20.42 0 0 0 0.26,5.49 z"
             id="path303" />
        </g>
        <g
           id="HAIR">
          <path
             class="cls-14"
             d="m 803,627.56 c 26.51,1.49 32.72,-25.31 31.54,-27.08 -1.18,-1.77 -5,-12.75 -8.49,-20.3 -3.49,-7.55 -11.69,-9 -11.69,-9 0,0 0.24,-12.44 -23,-17 -28.66,-5.68 -57,12.11 -43.84,26 -2.78,4.25 -14.12,18.26 3.42,39 5.43,6.36 33.81,10.09 52.06,8.38 z"
             id="path306" />
          <path
             class="cls-20"
             d="m 814.32,571.14 c 0,0 4.3,-2.82 10.51,-0.46"
             id="path308" />
        </g>
        <path
           id="HEAD-2"
           data-name="HEAD"
           class="cls-13"
           d="m 768.5,637.3 c -20.35,-8.48 -18.24,-39.19 -14.48,-52.16 20.08,11.48 54.16,2.35 54.16,2.35 -3.77,15.35 3.94,20.18 3.94,20.18 0,0 6.68,-5.38 9.09,-1.76 3.63,5.44 -7.35,11.31 -9.22,12.26 0.01,0 -15.28,30.89 -43.49,19.13 z" />
      </g>
    </g>
    <g
       id="MAN"
       transform="translate(502.25,-5.12)">
      <g
         id="LEFT_HAND-2"
         data-name="LEFT HAND">
        <path
           id="HAND-3"
           data-name="HAND"
           class="cls-13"
           d="m 1055.23,545.24 c -6,43.08 -62.76,129.12 -67.54,136.17 -5.34,7.88 -14.78,2.37 -12.27,-8.08 2.85,-11.89 18.1,-109.41 32.86,-136.76 16,-74.93 56.59,-164.8 68.77,-175.14 17.8,-15.12 31.43,-10.74 34.7,26.81 3.25,37.26 -37.58,128.51 -56.52,157 z" />
        <path
           id="SHADOW-4"
           data-name="SHADOW"
           class="cls-14"
           d="m 1090.19,474.11 c -2,4.94 -4,9.84 -6.1,14.63 0,0 -45.7,-28.71 -49.16,-40.68 q 1.42,-3.8 2.85,-7.5 v 0 c 19.36,18.76 50.69,27.52 50.69,27.52 q 0.95,3 1.72,6.03 z" />
        <path
           id="ARM-2"
           data-name="ARM"
           class="cls-13"
           d="m 980.54,665.93 c -4.21,1.49 -23.88,8 -27.74,12.06 -3.86,4.06 -6.64,17.24 -6.56,18.69 0.08,1.45 0.76,9.32 0.76,9.32 a 5.86,5.86 0 0 0 5.36,-6.36 c -0.26,-7 7.31,-12.46 11.73,-14.22 1.83,-0.74 6.33,0 6.91,2.61 0.58,2.61 -6.4,5.71 -7.65,7.6 -1.91,2.89 -0.2,6.22 -0.2,6.22 0,0 10.72,-5.17 12.78,-6.15 2.06,-0.98 12.88,-12.2 16.55,-21.21 3.67,-9.01 -2.18,-12 -11.94,-8.56 z" />
      </g>
      <g
         id="LEGS-2"
         data-name="LEGS">
        <g
           id="RIGHT_LEG-2"
           data-name="RIGHT LEG">
          <path
             id="LEG-2"
             data-name="LEG"
             class="cls-13"
             d="m 1198.55,785.14 c 1.4,11.89 13.93,45 17.83,58.78 9,31.77 45.41,169.66 56.37,204.61 13.63,43.45 20.34,17.85 20.34,1.67 0,-16.18 23.51,-123.28 8.88,-176.52 -7.91,-28.81 -23.37,-57.25 -24.73,-106.4 z" />
          <path
             id="SHADOW-5"
             data-name="SHADOW"
             class="cls-14"
             d="m 1277.49,773.41 c -27.48,15.6 -57.13,22.32 -75.66,25.18 -0.8,-3.07 -3,-11.26 -3.28,-13.45 l 78.69,-17.86 q 0.09,3.12 0.25,6.13 z" />
          <path
             id="SOCK"
             class="cls-15"
             d="m 1303.59,970.63 c -4,37.6 -10.5,71.08 -10.5,79.57 0,16.18 -6.71,41.78 -20.34,-1.67 -4.38,-14 -12.85,-44.45 -22,-78 3.11,1 23.57,6.92 52.84,0.1 z" />
          <g
             id="SHOES-3"
             data-name="SHOES">
            <path
               class="cls-21"
               d="m 1216.4,1079.44 c 0,0 -4,-13.1 9,-17.8 10.23,-3.7 39.5,-10.34 43.09,-21.54 0,0 6.88,6.63 25.67,1.64 a 45.35,45.35 0 0 1 11.74,37 z"
               id="path321" />
            <path
               class="cls-21"
               d="m 1282.32,1043.74 c 0.18,-1.58 0.32,-19.11 -5.25,-21.89 -5.57,-2.78 -18.26,-0.18 -17.92,2.78 0.34,2.96 6.87,17.41 8.48,17.78 1.61,0.37 14.69,1.33 14.69,1.33 z"
               id="path323" />
            <rect
               class="cls-15"
               x="1213.38"
               y="1078.79"
               width="95.68"
               height="5.6199999"
               rx="2.3800001"
               id="rect325" />
            <path
               class="cls-4"
               d="m 1270.36,1057 c 0,0 -2.65,-9.47 -8.18,-9.49 -6.79,0 -8.1,3.87 -8.1,3.87"
               id="path327" />
            <path
               class="cls-4"
               d="m 1259.23,1060.89 c 0,0 -1.56,-9 -7.06,-9.49 a 9.21,9.21 0 0 0 -8.66,3.86"
               id="path329" />
          </g>
        </g>
        <g
           id="LEFT_LEG-2"
           data-name="LEFT LEG">
          <path
             id="SHORTS-2"
             data-name="SHORTS"
             class="cls-22"
             d="m 1159,792.77 c -1.73,4.06 -106,-22.82 -103.88,-32.36 1.11,-5 31.11,-4.91 58.61,3.28 25.03,7.46 48.02,22.53 45.27,29.08 z" />
          <path
             id="LEG-3"
             data-name="LEG"
             class="cls-13"
             d="m 1073.89,758.82 c -4.93,1.07 -4.69,34.47 0,76.75 4.69,42.28 15.11,200.43 8.35,211.43 -6.76,11 25.57,1.56 26.62,-4.18 1.05,-5.74 44.2,-97.2 35.51,-154.16 -8.89,-58.28 4.79,-97.41 6.82,-103.68 2.03,-6.27 -40.9,-34.07 -77.3,-26.16 z" />
          <path
             id="SHADOW-6"
             data-name="SHADOW"
             class="cls-14"
             d="m 1151.19,785 c -0.51,1.58 -1.76,5.24 -3.2,10.76 -26,-25 -58.1,-29.44 -77,-29.52 0.59,-4.48 1.54,-7.08 2.86,-7.37 36.45,-7.96 79.37,19.81 77.34,26.13 z" />
          <path
             id="SOCK-2"
             data-name="SOCK"
             class="cls-15"
             d="m 1135.06,969 v 0.06 c -10.61,37.85 -25.58,70.41 -26.18,73.76 -1,5.74 -33.41,15.14 -26.62,4.18 3.07,-5 2.61,-40.18 0.75,-81.13 -0.01,-0.03 14.69,9.42 52.05,3.13 z" />
          <g
             id="SHOES-4"
             data-name="SHOES">
            <path
               class="cls-21"
               d="m 1026.09,1079.44 c 0,0 -4,-13.1 9,-17.8 10.23,-3.7 45.06,-10.34 48.65,-21.54 0,0 6.88,6.63 25.67,1.64 0,0 12.53,18.56 9.51,37 z"
               id="path337" />
            <path
               class="cls-21"
               d="m 1092,1043.74 c 0.18,-1.58 0.32,-19.11 -5.25,-21.89 -5.57,-2.78 -12.7,-0.18 -12.35,2.78 0.35,2.96 6.86,17.41 8.47,17.78 1.61,0.37 9.13,1.33 9.13,1.33 z"
               id="path339" />
            <rect
               class="cls-15"
               x="1023.07"
               y="1078.79"
               width="99.010002"
               height="5.6199999"
               rx="2.3800001"
               id="rect341" />
            <path
               class="cls-4"
               d="m 1076.15,1058.11 c 0,0 -1,-11.14 -6.5,-11.16 -6.79,0 -5.32,5.53 -5.32,5.53"
               id="path343" />
            <path
               class="cls-4"
               d="m 1063.35,1062.56 c 0,0 -1,-11.14 -6.5,-11.16 -6.79,0 -5.32,5.53 -5.32,5.53"
               id="path345" />
          </g>
        </g>
        <g
           id="SHORTS-3"
           data-name="SHORTS">
          <path
             class="cls-17"
             d="m 1090,590.3 c -7.75,21.58 -11.41,37.53 -18.19,93.9 -6.25,51.89 -16.18,65.77 -16.71,76.21 0,0 64.21,-12.53 103.88,32.36 l 13.77,-32.36 10.58,25.84 c 0,0 60.2,6.52 118.65,-33.67 0,0 -18.26,-19.83 -23.61,-63.57 -5.54,-45.32 -13.38,-76.66 -23.07,-95.28 -9.69,-18.62 -162.64,-10.87 -165.3,-3.43 z"
             id="path349" />
          <path
             class="cls-23"
             d="m 1172.74,760.41 c -3.34,-11 -16.91,-67.33 -19,-68.9 -2.09,-1.57 -15.66,-9.39 -15.66,-9.39"
             id="path351" />
          <path
             class="cls-14"
             d="m 1261.42,607.9 c -10.3,-5.88 -39.82,-16.55 -107.36,-3.56 -47,9 -62,-0.89 -66.2,-7.94 0.67,-2 1.38,-4 2.13,-6.1 2.67,-7.44 155.62,-15.19 165.3,3.43 a 118.27,118.27 0 0 1 6.13,14.17 z"
             id="path353" />
          <path
             class="cls-15"
             d="m 1266.9,771.75 -3.16,1.06 c -0.24,-0.71 -6,-18 -12.73,-66.62 -6.35,-45.48 -19.57,-107.84 -21.24,-115.64 1.18,0 2.31,-0.07 3.4,-0.08 2.13,10 14.93,70.7 21.14,115.27 6.69,48.17 12.54,65.83 12.59,66.01 z"
             id="path355" />
          <path
             class="cls-15"
             d="m 1257.44,775.08 -3.16,1.07 c -0.24,-0.72 -6,-18 -12.73,-66.62 -6.22,-44.58 -19,-108.17 -21.13,-118.39 1.15,-0.1 2.27,-0.19 3.36,-0.26 2.32,11.43 14.92,74.08 21.07,118.2 6.72,48.16 12.54,65.83 12.59,66 z"
             id="path357" />
        </g>
      </g>
      <path
         id="T-SHIRT-2"
         data-name="T-SHIRT"
         class="cls-14"
         d="m 1217.84,330.63 c 15.32,5.39 41.27,15.31 50.38,22.1 9.11,6.79 52.22,61.06 52.22,61.06 0,0 -19,39.67 -62.31,54.81 0,0 -18.26,43.75 -1.31,125.74 0,0 -11.83,-12.72 -100.15,7.86 -60.59,14.12 -74.91,-13 -74.54,-17.2 0.37,-4.2 22.84,-63.68 6.36,-116.92 0,0 -44.8,-12.53 -60.36,-39.67 0,0 26.75,-55.92 39.95,-66.59 13.2,-10.67 48.86,-20.75 61.25,-24.58 12.39,-3.83 88.51,-6.61 88.51,-6.61 z" />
      <g
         id="BACKPACK">
        <path
           class="cls-21"
           d="m 1255.59,589.62 c 2.84,12.78 53.1,3.72 35.17,-49.14 -17.93,-52.86 -32.79,-71.1 -32.79,-71.1 0,0 -16.1,58.49 -2.38,120.24 z"
           id="path362" />
        <path
           class="cls-21"
           d="m 1248,340.35 c -9.06,21.14 -28.12,79.85 8.32,175.48 l -5.72,27.75 c 0,0 -56.37,-82.21 -22.76,-208.3 1.78,-6.73 20.16,5.07 20.16,5.07 z"
           id="path364" />
        <path
           class="cls-21"
           d="m 1129.35,337.76 c -31.55,53.07 -21.88,170.91 -35.3,190.11 0,0 -20,-130.09 8.27,-180.47 5.41,-9.65 30.68,-15.7 27.03,-9.64 z"
           id="path366" />
      </g>
      <g
         id="HEAD-3"
         data-name="HEAD">
        <g
           id="NECK-2"
           data-name="NECK">
          <path
             class="cls-13"
             d="m 1219.87,331.74 c 0,0 -46.28,27 -86,4.39 0,0 22,-12.29 24.93,-34.48 a 1.65,1.65 0 0 0 0.05,-0.38 l 0.09,-0.8 a 1,1 0 0 0 0,-0.24 c 0,-0.61 0.1,-1.22 0.12,-1.84 0,-0.78 0,-1.58 0,-2.39 v 0 l 40.79,-9.43 c 0,0 0,2.86 0.35,7.17 1.14,10.8 4.99,30.78 19.67,38 z"
             id="path369" />
          <path
             class="cls-14"
             d="m 1200.85,299.9 c -10.17,23.73 -36.71,21.22 -47.37,17.2 a 41.33,41.33 0 0 0 5.36,-15.45 1.65,1.65 0 0 0 0.05,-0.38 c 0,-0.26 0.07,-0.53 0.09,-0.8 a 1,1 0 0 0 0,-0.24 c 0,-0.61 0.1,-1.22 0.12,-1.84 0,-0.79 0,-1.59 0,-2.39 v 0 l 40.79,-9.43 c 0,0 0.56,9.01 0.96,13.33 z"
             id="path371" />
        </g>
        <path
           id="FACE"
           class="cls-13"
           d="m 1204,287.51 a 24.72,24.72 0 0 1 -4.09,8.9 c -2.21,3 -3.07,4.77 -5,6 -5,3.28 -31.26,12 -41.54,-2.54 -4.83,-6.85 -7.63,-33.07 -5.32,-53.86 2.48,-22.2 48.37,-12.57 55.92,6.62 4.74,12.04 1.92,26.67 0.03,34.88 z" />
        <g
           id="HAIR-2"
           data-name="HAIR">
          <path
             class="cls-14"
             d="m 1178.28,244.89 c -1.81,0.24 -31.49,7.08 -41,-4.54 -9.51,-11.62 4.68,-22.49 18.74,-21.13 0,0 1,-11.34 18.13,-14.69 17.13,-3.35 24.83,3.54 24.9,10 0,0 12.34,-4.85 21.55,2.59 9.21,7.44 5.67,13.07 5.28,20.61 -0.39,7.54 5.4,5.55 5.36,13.43 0,8.4 -9.08,8.41 -16.4,25 -2.81,6.36 -7.76,9.1 -7.95,6.19 -0.19,-2.91 -0.4,-3.29 -1.63,-4.94 a 45.73,45.73 0 0 1 -7.15,-23.1 c -0.42,-12.43 -3.89,-11.49 -19.83,-9.42 z"
             id="path375" />
          <path
             class="cls-24"
             d="m 1194.47,242.59 c -7.67,0.54 -30.31,13.84 -53.55,4.7"
             id="path377" />
        </g>
        <circle
           class="cls-13"
           cx="1206.0699"
           cy="273.5"
           r="11.49"
           id="circle380" />
      </g>
      <g
         id="RIGHT_HAND-2"
         data-name="RIGHT HAND">
        <path
           id="HAND-4"
           data-name="HAND"
           class="cls-13"
           d="m 1233.58,471.68 c 0,0 31.72,66 78.57,78.52 15.66,4.19 30.87,-8.51 32.37,-35.3 1.5,-26.79 -34.86,-84.44 -34.86,-84.44 -27.81,32 -51.53,38.14 -51.53,38.14 l -12.81,-6.6 z" />
        <path
           id="ARM-3"
           data-name="ARM"
           class="cls-13"
           d="m 1229.34,469.83 c -4.29,-2.45 -16.89,-16.67 -18.89,-22 -2,-5.33 0.42,-20 1,-21.3 0.58,-1.3 4.3,-9.23 4.3,-9.23 a 9.42,9.42 0 0 1 2.51,9.12 19.31,19.31 0 0 0 4.87,18.34 c 1.42,1.43 8.57,2.15 10.13,0 1.56,-2.15 -2.12,-7.85 -2.55,-10.09 -0.65,-3.42 2.21,-5.74 2.21,-5.74 l 9.44,10.9 c 1.52,1.75 3.39,16.45 3.32,26.17 -0.07,9.72 -7.21,9 -16.34,3.83 z" />
        <g
           id="SHADOW-7"
           data-name="SHADOW">
          <path
             class="cls-14"
             d="m 1316.86,442.55 v 0 c -0.37,0.48 -23.71,30 -46.42,32.42 l -12.3,-6.38 c 0,0 23.72,-6.16 51.53,-38.13 v 0 0.07 0.07 l 6.94,11.66 v 0 z"
             id="path385" />
          <path
             class="cls-25"
             d="m 1269.88,473.3 c 0,0 28.94,12.07 41,23.39"
             id="path387" />
        </g>
      </g>
    </g>
    <path
       class="cls-24"
       d="m 1676.09,250.16 c 0,0 4.28,-2.4 10.45,1.56"
       id="path392" />
    <ellipse
       class="cls-14"
       cx="-184.02014"
       cy="1689.525"
       rx="3.02"
       ry="2.3299999"
       transform="rotate(-87.43)"
       id="ellipse394" />
    <ellipse
       class="cls-14"
       cx="-184.96906"
       cy="1668.3562"
       rx="3.02"
       ry="2.3299999"
       transform="rotate(-87.43)"
       id="ellipse396" />
    <polyline
       class="cls-24"
       points="1165.42 264.89 1164.57 280.15 1169.74 282.02"
       id="polyline398"
       transform="translate(502.25,-5.12)" />
    <path
       class="cls-24"
       d="m 1680.25,279.94 c 0,0 -2.94,6.11 -8.26,5.44"
       id="path400" />
    <path
       class="cls-24"
       d="m 1286.79,589.57 c 0,0 4.28,-2.4 10.45,1.56"
       id="path402" />
    <path
       class="cls-24"
       d="m 1258.05,589.75 c 0,0 3.74,-3.17 10.55,-0.48"
       id="path404" />
    <ellipse
       class="cls-14"
       cx="-541.40015"
       cy="1315.8657"
       rx="3.02"
       ry="2.3299999"
       transform="rotate(-87.43)"
       id="ellipse406" />
    <ellipse
       class="cls-14"
       cx="-540.92462"
       cy="1288.7023"
       rx="3.02"
       ry="2.3299999"
       transform="rotate(-87.43)"
       id="ellipse408" />
    <path
       class="cls-24"
       d="m 1274.14,608.88 a 3,3 0 1 1 0,-5.94"
       id="path410" />
    <path
       class="cls-24"
       d="m 1273.72,619.04 c 0,0 7.65,1.54 14,-3"
       id="path412" />
  </g>
</svg>
