<svg id="Layer_1" enable-background="new 0 0 256 256" height="512" viewBox="0 0 256 256" width="512" xmlns="http://www.w3.org/2000/svg"><g><g><g><path d="m105.566 182.969c-32.097 0-58.116-26.019-58.116-58.116v-18.609c0-5.291 4.289-9.58 9.58-9.58h106.652v28.189c.001 32.096-26.019 58.116-58.116 58.116z" fill="#4671c6"/></g></g><g><g><path d="m105.566 184.969c-33.148 0-60.116-26.968-60.116-60.116v-18.608c0-6.386 5.195-11.581 11.581-11.581h106.652c1.104 0 2 .896 2 2v28.189c0 33.148-26.968 60.116-60.117 60.116zm-48.535-86.306c-4.18 0-7.581 3.4-7.581 7.581v18.608c0 30.942 25.174 56.116 56.116 56.116s56.116-25.174 56.116-56.116v-26.189z" fill="#3762cc"/></g></g><g><g><path d="m167.668 247.856v-18.616c0-12.703-10.298-23-23-23h-78.202c-12.703 0-23 10.298-23 23v18.616z" fill="#6bdddd"/></g></g><g><g><path d="m105.566 202.915c-8.306 0-16.127-2.036-22.999-5.62v10.784.003c0 12.69 10.287 22.976 22.976 22.976 12.689 0 22.976-10.287 22.976-22.976v-.003-10.76c-6.859 3.569-14.665 5.596-22.953 5.596z" fill="#f9cfcf"/></g></g><g><g><path d="m155.064 135.219v-4.635c0-27.091-22.161-49.052-49.498-49.052-27.337 0-49.498 21.961-49.498 49.052v4.635c-8.595-.174-15.414 6.673-15.414 14.949 0 8.838 7.715 15.828 16.721 14.876 5.108 21.702 24.739 37.871 48.19 37.871 23.453 0 43.083-16.17 48.19-37.871 8.994.951 16.721-6.026 16.721-14.876.002-8.28-6.822-15.123-15.412-14.949z" fill="#f9cfcf"/></g></g><g><g><path d="m131.264 160.362c-3.455 0-6.256-2.801-6.256-6.256v-6.673c0-3.455 2.801-6.256 6.256-6.256 3.455 0 6.256 2.801 6.256 6.256v6.673c0 3.455-2.801 6.256-6.256 6.256z" fill="#3762cc"/></g></g><g><g><path d="m79.856 160.362c-3.455 0-6.256-2.801-6.256-6.256v-6.673c0-3.455 2.801-6.256 6.256-6.256 3.455 0 6.256 2.801 6.256 6.256v6.673c.001 3.455-2.8 6.256-6.256 6.256z" fill="#3762cc"/></g></g><g><g><path d="m105.566 204.915c-23.491 0-43.702-15.454-49.727-37.785-.024 0-.048 0-.072 0-4.233 0-8.344-1.554-11.499-4.394-3.568-3.21-5.614-7.791-5.614-12.567 0-4.572 1.807-8.861 5.086-12.075 2.818-2.762 6.429-4.427 10.328-4.798v-2.711c0-28.15 23.102-51.053 51.498-51.053s51.498 22.902 51.498 51.053v2.711c3.899.371 7.509 2.036 10.328 4.799 3.28 3.214 5.086 7.502 5.086 12.074 0 4.776-2.046 9.356-5.613 12.566-3.174 2.855-7.363 4.402-11.572 4.395-6.024 22.331-26.235 37.785-49.727 37.785zm-48.189-41.87c.918 0 1.731.631 1.945 1.542 5.035 21.39 24.051 36.328 46.244 36.328s41.209-14.938 46.244-36.328c.231-.98 1.153-1.625 2.157-1.531 3.726.394 7.457-.806 10.222-3.294 2.726-2.452 4.289-5.948 4.289-9.593 0-3.488-1.38-6.762-3.886-9.218-2.53-2.479-5.893-3.793-9.487-3.731-.522.015-1.056-.195-1.44-.571s-.6-.892-.6-1.429v-4.635c0-25.945-21.307-47.053-47.498-47.053s-47.498 21.107-47.498 47.053v4.635c0 .537-.216 1.053-.6 1.429s-.899.582-1.44.571c-3.598-.057-6.957 1.252-9.487 3.731-2.506 2.455-3.886 5.729-3.886 9.218 0 3.645 1.563 7.142 4.29 9.595 2.764 2.486 6.489 3.686 10.221 3.292.07-.007.141-.011.21-.011z" fill="#3762cc"/></g></g><g><g><path d="m167.667 249.855h-124.202c-1.104 0-2-.896-2-2v-18.616c0-13.785 11.215-25 25-25h14.102v-6.943c0-.699.365-1.348.963-1.71.598-.364 1.342-.387 1.961-.063 6.764 3.528 14.397 5.393 22.074 5.393 7.77 0 15.182-1.807 22.031-5.37.62-.321 1.363-.297 1.96.064.598.363.962 1.011.962 1.71v6.92h14.146c13.785 0 25 11.215 25 25v18.616c.003 1.104-.892 1.999-1.997 1.999zm-122.202-4h120.202v-16.616c0-11.579-9.421-21-21-21h-16.146c-1.104 0-2-.896-2-2v-5.742c-6.562 2.897-13.741 4.418-20.954 4.418-7.23 0-14.425-1.527-20.999-4.438v5.762c0 1.104-.896 2-2 2h-16.102c-11.58 0-21 9.421-21 21v16.616z" fill="#3762cc"/></g></g><g><g><path d="m105.544 180.123c-1.983 0-3.714-.233-5.293-.714-2.62-.797-4.916-2.138-6.641-3.877-.778-.784-.772-2.051.012-2.828.783-.778 2.051-.772 2.828.012 1.261 1.271 2.977 2.262 4.964 2.867 1.196.363 2.547.54 4.129.54 1.583 0 2.934-.177 4.13-.54 1.987-.605 3.703-1.597 4.964-2.867.777-.784 2.043-.79 2.828-.012.784.777.79 2.044.012 2.828-1.725 1.739-4.021 3.08-6.64 3.877-1.578.481-3.31.714-5.293.714z" fill="#3762cc"/></g></g><g><g><path d="m138.382 121.065h-56.515c-14.11 0-25.548-11.438-25.548-25.548 0-14.11 11.438-25.548 25.548-25.548h81.837v25.774c0 13.985-11.337 25.322-25.322 25.322z" fill="#4671c6"/></g></g><g><g><path d="m84.66 109.023c-7.673 0-13.871-6.431-13.489-14.185.358-7.255 6.617-12.826 13.88-12.826h50.269c7.459 0 13.505 6.047 13.505 13.505 0 7.459-6.047 13.505-13.505 13.505h-50.66z" fill="#a4c9ff"/></g></g><g><g><path d="m138.382 123.064h-56.515c-15.189 0-27.547-12.357-27.547-27.547s12.358-27.548 27.547-27.548h81.837c1.104 0 2 .896 2 2v25.773c0 15.067-12.257 27.322-27.322 27.322zm-56.515-51.094c-12.984 0-23.547 10.563-23.547 23.548 0 12.983 10.563 23.547 23.547 23.547h56.515c12.86 0 23.322-10.462 23.322-23.321v-23.774z" fill="#3762cc"/></g></g><g><g><path d="m202.368 83.779c17.302-17.302 17.302-45.355 0-62.658s-45.355-17.303-62.658 0c-14.5 14.5-16.841 36.546-7.038 53.492l-3.651 17.768c-.256 1.243.844 2.343 2.087 2.087l17.768-3.651c16.946 9.803 38.993 7.462 53.492-7.038z" fill="#e0ebfc"/></g></g><g><g><path d="m170.999 98.75c-7.688 0-15.422-1.907-22.455-5.822l-17.032 3.499c-1.244.256-2.523-.127-3.422-1.025s-1.283-2.179-1.027-3.423l3.5-17.032c-10.021-18.005-6.891-40.614 7.735-55.239 18.054-18.055 47.431-18.055 65.485 0s18.055 47.432 0 65.486c-8.912 8.911-20.792 13.556-32.784 13.556zm-22.122-9.933c.349 0 .695.092 1.001.269 16.543 9.572 37.547 6.808 51.076-6.721 16.495-16.495 16.494-43.335 0-59.83-16.495-16.494-43.334-16.494-59.829 0-13.528 13.528-16.292 34.531-6.721 51.077.245.424.326.924.228 1.403l-3.58 17.422 17.423-3.579c.133-.027.268-.041.402-.041zm53.492-5.038h.01z" fill="#3762cc"/></g></g><g><g><g><path d="m167.563 77.451c1.79 1.348 4.257 1.346 6.043-.006l21.784-16.481c6.14-4.626 8.298-12.864 5.214-19.906-3.348-7.645-11.856-11.612-19.865-9.263-4.576 1.342-8.204 4.527-10.206 8.583-2.002-4.056-5.63-7.241-10.206-8.583-8.415-2.468-17.381 2.036-20.334 10.455-2.423 6.907.213 14.592 6.059 18.997z" fill="#f9a7a7"/></g></g><g><g><path d="m181.19 52.564h-6.611v-6.611c0-.356-.289-.645-.645-.645h-6.772c-.356 0-.645.289-.645.645v6.611h-6.611c-.356 0-.645.289-.645.645v6.772c0 .356.289.645.645.645h6.611v6.611c0 .356.289.645.645.645h6.772c.356 0 .645-.289.645-.645v-6.611h6.611c.356 0 .645-.289.645-.645v-6.772c0-.356-.289-.645-.645-.645z" fill="#f9cfcf"/></g></g></g></g></svg>