<svg id="Capa_1" enable-background="new 0 0 512.002 512.002" height="512" viewBox="0 0 512.002 512.002" width="512" xmlns="http://www.w3.org/2000/svg"><g><path d="m511.884 503.184-6.709-37.644c-4.507-25.935-22.974-46.758-48.196-54.346l-25.931-7.793c-4.743-1.424-9.794-.629-13.868 2.177-1.49 1.027-2.769 2.277-3.816 3.685l-14.302-4.335-2.654-22.753c10.366-8.259 20.457-19.007 29.816-31.962 4.319-5.977 7.558-11.349 10-16.688 18.508-1.753 33.037-17.372 33.037-36.324 0-11.139-6.425-20.801-15.761-25.493 11.791-15.18 14.323-40.488 5.582-67.98-1.255-3.947-5.471-6.128-9.42-4.875-3.947 1.255-6.13 5.473-4.875 9.42 7.179 22.578 5.545 43.421-3.363 54.521-3.591-10.999-11.5-21.047-22.621-28.288-12.729-8.288-25.756-8.722-38.354-9.142-18.942-.632-38.518-1.298-64.69-26.268l-.304-2.954h4.977c31.659 0 59.857-15.084 77.799-38.437 12.337 4.074 22.951 11.546 31.591 22.278 1.481 1.841 3.654 2.797 5.847 2.797 1.65 0 3.313-.542 4.698-1.659 3.227-2.598 3.736-7.319 1.139-10.545-9.48-11.775-21.403-20.562-34.867-25.782 7.563-13.898 11.863-29.818 11.863-46.723-.002-54.077-43.996-98.071-98.072-98.071h-38.536c-4.143 0-7.5 3.358-7.5 7.5s3.357 7.5 7.5 7.5h38.536c45.805 0 83.07 37.266 83.07 83.071s-37.266 83.07-83.07 83.07h-169.766c-5.696-5.646-13.529-9.141-22.164-9.141s-16.468 3.495-22.163 9.141h-8.266c-17.567 0-34.356-5.414-48.552-15.657-3.357-2.423-8.048-1.666-10.471 1.693-2.424 3.359-1.665 8.047 1.693 10.471 16.715 12.061 36.468 18.45 57.136 18.489-.567 2.364-.877 4.827-.877 7.363 0 17.369 14.131 31.5 31.5 31.5s31.5-14.131 31.5-31.5c0-2.534-.309-4.996-.877-7.359h76.364c-4.431 10.261-6.747 22.163-6.747 35.1 0 13.033 3.754 30.966 12.89 42.124-7.756 5.103-12.89 13.879-12.89 23.835 0 18.972 14.558 34.602 33.093 36.328 2.419 5.358 5.638 10.725 9.943 16.684 9.362 12.959 19.456 23.71 29.825 31.97l-2.685 22.961-14.172 4.261c-1.066-1.468-2.384-2.765-3.925-3.827-4.073-2.808-9.128-3.601-13.866-2.177l-25.934 7.794c-10.897 3.146-22.978 10.534-31.879 20.32-8.466 9.555-14.107 21.321-16.31 33.993l-6.715 37.676c-.727 4.078 1.99 7.973 6.067 8.7 4.078.727 7.974-1.989 8.7-6.068l6.721-37.708c1.727-9.938 6.124-19.133 12.719-26.595 6.011-6.329 14.616-12.976 25.015-15.953l25.933-7.793c.459-.139.818.012 1.036.162.311.214.48.511.508.883 2.931 40.756 20.952 86.528 21.718 88.457 1.168 2.942 3.989 4.734 6.973 4.734.921 0 1.857-.171 2.766-.531 3.85-1.528 5.731-5.889 4.203-9.738-.169-.426-16.073-40.812-20.125-77.749l10.067-3.027c.959 6.214 3.488 12.11 7.406 16.97 2.206 2.738 4.741 5.224 7.534 7.389 1.367 1.06 2.984 1.573 4.59 1.573 2.238 0 4.454-.999 5.933-2.905 2.537-3.274 1.941-7.985-1.333-10.523-1.871-1.451-3.568-3.115-5.045-4.947-3.449-4.278-5.045-9.996-4.38-15.687l2.47-21.121c11.238 6.375 22.558 9.758 33.41 9.758 10.854 0 22.178-3.384 33.418-9.762l2.465 21.129c.663 5.688-.934 11.404-4.38 15.68-6.468 8.023-16.436 12.28-29.624 12.651-4.141.117-7.402 3.567-7.286 7.708.114 4.069 3.448 7.289 7.493 7.289.071 0 .143-.001.215-.003 22.143-.623 34.452-10.258 40.881-18.232 3.956-4.909 6.497-10.873 7.433-17.155l10.107 3.064c-.864 9.336-2.43 21.585-5.266 34.619l-6.699 24.102c-2.358 6.751-5.017 12.962-7.901 18.461-1.924 3.668-.511 8.202 3.157 10.126 1.112.583 2.304.86 3.479.86 2.698 0 5.307-1.461 6.647-4.017 3.261-6.216 6.243-13.189 8.863-20.727.052-.15.1-.301.142-.454l6.821-24.539c.038-.135.071-.271.102-.409 3.726-17.058 5.384-32.824 6.119-43.046.027-.372.197-.669.508-.883.218-.151.572-.302 1.037-.162l25.93 7.793c19.748 5.941 34.208 22.245 37.741 42.581l6.715 37.676c.727 4.077 4.614 6.792 8.7 6.068 4.076-.725 6.793-4.62 6.066-8.698zm-70.453-186.334c1.66-8.983 2.055-19.257 2.136-32.866 6.102 1.307 10.693 6.733 10.693 13.216 0 8.765-5.284 16.309-12.829 19.65zm-312.931-96.85c-9.098 0-16.5-7.402-16.5-16.5s7.402-16.5 16.5-16.5 16.5 7.402 16.5 16.5-7.402 16.5-16.5 16.5zm171.874-23.859.579 5.629c-4.729 14.445-10.222 25.373-20.966 31.688-13.014 7.648-21.547 19.273-24.35 32.772-7.718-6.176-11.896-22.764-11.896-34.99 0-13.593 2.943-25.632 8.526-35.1h48.107zm-56.633 101.059c0-6.557 4.697-12.035 10.905-13.26.079 13.678.463 24.001 2.091 32.99-7.637-3.302-12.996-10.899-12.996-19.73zm40.194 44.228c-13.742-19.02-14.31-29.227-14.31-65.248 0-12.223 6.547-23.081 17.961-29.79 12.424-7.302 19.39-18.539 24.264-30.625 27.382 23.231 49.774 23.98 68.099 24.59 11.98.399 21.444.715 30.669 6.721 8.688 5.656 17.971 16.272 17.971 29.104 0 37.172-1.252 46.88-14.522 65.248-20.678 28.621-44.394 45.036-65.065 45.036s-44.389-16.415-65.067-45.036z"/><path d="m15 98.07c0-45.805 37.266-83.07 83.071-83.07h148.334c4.143 0 7.5-3.358 7.5-7.5s-3.357-7.5-7.5-7.5h-148.334c-54.077 0-98.071 43.995-98.071 98.071 0 18.364 5.108 36.271 14.773 51.787 1.422 2.282 3.869 3.535 6.373 3.535 1.354 0 2.725-.367 3.959-1.135 3.516-2.19 4.59-6.815 2.4-10.332-8.18-13.133-12.505-28.298-12.505-43.856z"/><path d="m379.5 273c-4.143 0-7.5 3.358-7.5 7.5v13c0 4.142 3.357 7.5 7.5 7.5s7.5-3.358 7.5-7.5v-13c0-4.142-3.357-7.5-7.5-7.5z"/><path d="m319.5 273c-4.143 0-7.5 3.358-7.5 7.5v13c0 4.142 3.357 7.5 7.5 7.5s7.5-3.358 7.5-7.5v-13c0-4.142-3.357-7.5-7.5-7.5z"/><path d="m373.054 336.911c-7.279-.834-14.778.015-21.682 2.461-6.653 2.358-12.825 6.23-17.851 11.198-2.945 2.912-2.973 7.661-.06 10.606 1.467 1.484 3.399 2.227 5.333 2.227 1.905 0 3.812-.722 5.273-2.167 3.467-3.429 7.726-6.1 12.314-7.726 6.015-2.132 11.454-2.1 14.96-1.697 4.104.472 7.834-2.48 8.307-6.595s-2.479-7.834-6.594-8.307z"/><path d="m212 233.5c0-12.407-10.094-22.5-22.5-22.5s-22.5 10.093-22.5 22.5 10.094 22.5 22.5 22.5 22.5-10.093 22.5-22.5zm-30 0c0-4.136 3.364-7.5 7.5-7.5s7.5 3.364 7.5 7.5-3.364 7.5-7.5 7.5-7.5-3.364-7.5-7.5z"/><path d="m337.999 319.741c3.487 2.325 7.574 3.487 11.66 3.487 4.087 0 8.174-1.163 11.661-3.487 3.446-2.298 4.377-6.955 2.079-10.401-2.298-3.445-6.952-4.377-10.401-2.08-1.901 1.269-4.773 1.27-6.679 0-3.448-2.296-8.103-1.365-10.4 2.081-2.298 3.446-1.366 8.102 2.08 10.4z"/><path d="m242.597 59.167c-1.216-2.199-2.654-4.398-4.351-6.59-11.016-14.229-33.726-23.447-55.193-22.396-14.423.699-26.368 5.842-34.345 14.647-17.787-6.188-36.658-2.887-50.526 5.144-11.034 6.388-19.002 15.44-23.23 25.699-2.565-3.988-3.596-10.347-1.31-16.78 1.487-3.866-.441-8.206-4.308-9.692-3.87-1.49-8.206.442-9.692 4.308-3.333 8.667-3.13 18.278.556 26.371 2.472 5.425 6.385 9.848 11.285 12.844-.031 3.914.445 7.882 1.458 11.841 3.703 14.477 13.695 26.144 28.136 32.85 4.435 2.06 9.208 3.619 14.266 4.673 4.977 13.454 22.456 23.575 40.029 23.42 14.497 0 27.452-6.455 36.833-18.462 3.383-4.33 4.96-9.913 5.423-15.854 8.755 7.178 18.778 14.001 31.265 18.324 11.993 4.151 24.894 4.359 37.13 1.199 14.762 7.18 32.318 7.853 48.412 1.813 16.461-6.178 29-18.424 35.31-34.484 6.66-16.953 2.122-37.957-11.291-52.267-5.254-5.604-14.155-12.54-27.939-16.013-3.705-6.928-8.527-13.732-14.448-20.287-2.775-3.074-7.519-3.314-10.593-.539-3.073 2.776-3.314 7.519-.538 10.593 2.394 2.651 4.574 5.333 6.537 8.034-10.247.046-22.255 1.859-36.253 6.338-4.457 1.424-8.647 3.205-12.623 5.266zm-136.899 3.786c9.307-5.387 21.586-7.966 33.601-5.2-15.414 19.482-35.805 27.024-51.044 24.937 3.188-8.731 10.162-15.523 17.443-19.737zm7.669 48.276c-1.417 4.514-1.999 9.393-1.778 14.335-14.001-5.393-22.649-14.941-24.772-27.913 10.154 1.288 21.229-.486 32.088-5.249 13.373-5.865 25.222-15.665 34.581-28.541 2.326 1.543 4.584 3.355 6.749 5.462 5.09 4.952 10.254 13.877 14.366 23.765-12.519-7.272-27.049-9.892-46.458.029-7.083 3.621-12.192 9.884-14.776 18.112zm13.601 17.393c-.73-4.484-.518-8.985.711-12.9 1.37-4.364 3.823-7.475 7.29-9.248 18.634-9.522 29.745-3.755 43.143 7.617-7.778 5.707-16.172 10.132-25.899 12.293-9.409 2.091-17.821 2.736-25.245 2.238zm53.417 9.187c-9.069 11.61-20.266 13.241-28.053 12.563-7.266-.631-13.53-3.426-17.63-6.674 6.644-.189 13.596-1.078 20.764-2.67 10.343-2.298 19.299-6.575 27.406-11.967-.17 3.742-.952 6.783-2.487 8.748zm12.972-36.834c-.026-.086-.052-.172-.078-.258-5.309-17.418-14.173-33.96-22.583-42.144-2.523-2.455-5.143-4.612-7.832-6.492 6.801-5.338 15.541-6.658 20.916-6.919 16.621-.809 34.537 6.174 42.605 16.596 1.381 1.783 2.521 3.57 3.462 5.368-9.877 7.213-18.524 15.912-27.006 24.446-3.178 3.199-6.319 6.359-9.484 9.403zm40.442 34.363c-13.146-4.551-23.294-12.605-32.771-20.969 4.263-3.984 8.375-8.121 12.451-12.223 6.813-6.854 13.443-13.526 20.502-19.275.283 3.875.229 7.884.174 12.091-.187 13.898-.391 29.208 13.203 42.832-4.625-.145-9.196-.945-13.559-2.456zm83.954-66.84c3.664 2.005 6.93 4.518 9.756 7.533 10.953 11.685 11.967 27.124 8.274 36.524-4.735 12.053-14.189 21.26-26.619 25.926-7.182 2.695-14.718 3.65-21.951 2.889 8.283-5.368 15.631-12.495 21.342-21.122 10.544-15.93 13.515-33.872 9.198-51.75zm-17.46-5.406c6.984 16.884 5.677 33.884-4.247 48.875-6.98 10.547-17.282 18.328-28.571 22.468-18.697-11.179-18.537-23.13-18.321-39.272.093-6.875.19-14.232-1.356-21.772 3.787-2.088 7.762-3.851 11.994-5.205 15.216-4.869 28.91-6.544 40.501-5.094z"/></g></svg>